<svg width="21" height="20" viewBox="0 0 21 20" fill="none" xmlns="http://www.w3.org/2000/svg">
<path d="M13.625 10C12.8203 10 12.0469 9.64062 11.4375 8.99219C10.8477 8.35937 10.4844 7.51172 10.4219 6.60937C10.3555 5.64844 10.6485 4.76172 11.2461 4.11719C11.8438 3.47656 12.6875 3.125 13.625 3.125C14.5547 3.125 15.3985 3.48047 15.9961 4.12109C16.6016 4.76953 16.8946 5.65234 16.8242 6.60547C16.7578 7.50781 16.3985 8.35547 15.8086 8.98828C15.2032 9.64062 14.4297 10 13.625 10ZM13.625 4.375C13.0391 4.375 12.5196 4.58594 12.1641 4.96875C11.7969 5.36328 11.6289 5.89844 11.6719 6.51953C11.7149 7.13672 11.9571 7.71484 12.3555 8.14062C12.7227 8.53516 13.1758 8.75 13.625 8.75C14.0782 8.75 14.5274 8.53125 14.8946 8.14062C15.293 7.71484 15.5352 7.14062 15.5782 6.51953C15.6211 5.91797 15.4453 5.36719 15.0782 4.97656C14.7227 4.58594 14.2032 4.375 13.625 4.375Z" fill="#979DA7"/>
<path d="M18.7735 16.8751H8.47659C8.13675 16.8751 7.82425 16.7227 7.61722 16.4571C7.40238 16.1798 7.32425 15.8048 7.41019 15.4493C7.73831 14.129 8.55472 13.0352 9.76566 12.2813C10.8399 11.6134 12.211 11.2462 13.6211 11.2462C15.0586 11.2462 16.3946 11.5977 17.4766 12.2657C18.6914 13.0118 19.5078 14.1134 19.836 15.4493C19.9219 15.8048 19.8438 16.1798 19.6289 16.4571C19.4258 16.7227 19.1133 16.8751 18.7735 16.8751ZM8.66019 15.6251H18.5938C17.9492 13.3204 15.5313 12.5001 13.625 12.5001C11.7266 12.5001 9.31253 13.3204 8.66019 15.6251Z" fill="#979DA7"/>
<path d="M6.24221 10.1562C4.86721 10.1562 3.66018 8.87883 3.54689 7.30851C3.4883 6.50383 3.7383 5.76164 4.24611 5.21476C4.75002 4.6757 5.45705 4.37883 6.2383 4.37883C7.01564 4.37883 7.72268 4.67961 8.22658 5.22258C8.7383 5.77336 8.9883 6.51555 8.92971 7.31242C8.82424 8.87883 7.6133 10.1562 6.24221 10.1562ZM6.24221 5.62492C5.81252 5.62492 5.42971 5.78117 5.16408 6.06633C4.89064 6.3593 4.76174 6.75773 4.79689 7.21867C4.8633 8.13273 5.52346 8.90617 6.24221 8.90617C6.96096 8.90617 7.62502 8.13273 7.68752 7.21867C7.71877 6.76945 7.58596 6.3632 7.31643 6.07023C7.0508 5.78117 6.66799 5.62492 6.24221 5.62492Z" fill="#979DA7"/>
<path d="M6.51565 15.6249H2.12894C1.82034 15.6249 1.53519 15.4843 1.34378 15.246C1.14847 14.996 1.07815 14.6523 1.15628 14.332C1.42581 13.2421 2.09769 12.3437 3.09378 11.7265C3.97269 11.1835 5.08987 10.8827 6.23831 10.8827C7.22269 10.8827 8.06253 11.0468 8.80472 11.3866C9.11722 11.5312 9.25784 11.9023 9.11331 12.2148C8.96878 12.5273 8.59769 12.6679 8.28519 12.5234C7.71097 12.2616 7.043 12.1327 6.24222 12.1327C4.81644 12.1327 3.01565 12.7265 2.44534 14.3788H6.51565C6.8594 14.3788 7.14065 14.6601 7.14065 15.0038C7.14065 15.3476 6.8594 15.6249 6.51565 15.6249Z" fill="#979DA7"/>
</svg>
