<svg width="20" height="20" viewBox="0 0 20 20" fill="none" xmlns="http://www.w3.org/2000/svg">
<path fill-rule="evenodd" clip-rule="evenodd" d="M2.54149 2.80446C2.98302 1.84102 3.98749 1.25 5.06006 1.25H14.9405C16.0131 1.25 17.0176 1.84102 17.4591 2.80446L17.4592 2.80459L19.1504 6.49726C19.1505 6.49736 19.1505 6.49746 19.1506 6.49756C19.7186 7.73645 19.1747 9.03479 18.1253 9.6742V17.5H18.7503C19.0955 17.5 19.3753 17.7798 19.3753 18.125C19.3753 18.4702 19.0955 18.75 18.7503 18.75H1.25029C0.905116 18.75 0.625293 18.4702 0.625293 18.125C0.625293 17.7798 0.905116 17.5 1.25029 17.5H1.87529V9.6747C0.825782 9.03549 0.28213 7.73678 0.850027 6.49756C0.850051 6.4975 0.850075 6.49745 0.8501 6.4974L2.54149 2.80446ZM3.12529 10.0719V17.5H10.6253V12.1875C10.6253 11.7731 10.7899 11.3757 11.0829 11.0826C11.376 10.7896 11.7734 10.625 12.1878 10.625H14.6878C15.1022 10.625 15.4996 10.7896 15.7926 11.0826C16.0857 11.3757 16.2503 11.7731 16.2503 12.1875V17.5H16.8753V10.0718C16.8366 10.0746 16.7976 10.0766 16.7584 10.0778C16.7519 10.078 16.7455 10.0781 16.739 10.0781H16.6628C15.7848 10.0781 14.9722 9.69677 14.442 9.08175C13.9117 9.69679 13.0989 10.0781 12.221 10.0781C11.3447 10.0781 10.5418 9.67747 10.0139 9.06675C9.48477 9.69046 8.6669 10.0781 7.78154 10.0781C6.8979 10.0781 6.08867 9.67068 5.56088 9.0512C5.03318 9.671 4.22369 10.0781 3.33975 10.0781H3.26162C3.25524 10.0781 3.24887 10.078 3.24249 10.0778C3.20318 10.0766 3.16411 10.0746 3.12529 10.0719ZM6.18545 7.41289C6.18545 8.08712 6.86378 8.82812 7.78154 8.82812C8.71312 8.82812 9.37529 8.14652 9.37529 7.41289C9.37529 7.06771 9.65512 6.78789 10.0003 6.78789C10.3455 6.78789 10.6253 7.06771 10.6253 7.41289C10.6253 8.08725 11.3034 8.82812 12.221 8.82812C13.1535 8.82812 13.8171 8.1457 13.8171 7.41289C13.8171 7.06771 14.0969 6.78789 14.4421 6.78789C14.7873 6.78789 15.0671 7.06771 15.0671 7.41289C15.0671 8.14584 15.7305 8.82812 16.6628 8.82812H16.7285C17.8073 8.78911 18.3703 7.79468 18.0142 7.01836L18.0141 7.01807L16.3227 3.32523C16.3227 3.32519 16.3227 3.32514 16.3227 3.3251C16.1032 2.84642 15.5702 2.5 14.9405 2.5H5.06006C4.43034 2.5 3.89735 2.84642 3.6779 3.3251C3.67788 3.32514 3.67786 3.32519 3.67784 3.32523L1.98642 7.01823C1.63006 7.79573 2.19361 8.78979 3.2719 8.82812H3.33975C4.25775 8.82812 4.93545 8.08884 4.93545 7.41289C4.93545 7.06771 5.21527 6.78789 5.56045 6.78789C5.90563 6.78789 6.18545 7.06771 6.18545 7.41289ZM15.0003 17.5V12.1875C15.0003 12.1046 14.9674 12.0251 14.9088 11.9665C14.8502 11.9079 14.7707 11.875 14.6878 11.875H12.1878C12.1049 11.875 12.0254 11.9079 11.9668 11.9665C11.9082 12.0251 11.8753 12.1046 11.8753 12.1875V17.5H15.0003ZM5.31279 11.875C5.22991 11.875 5.15043 11.9079 5.09182 11.9665C5.03322 12.0251 5.00029 12.1046 5.00029 12.1875V15H8.75029V12.1875C8.75029 12.1046 8.71737 12.0251 8.65876 11.9665C8.60016 11.9079 8.52067 11.875 8.43779 11.875H5.31279ZM4.20794 11.0826C4.50096 10.7896 4.89839 10.625 5.31279 10.625H8.43779C8.85219 10.625 9.24962 10.7896 9.54265 11.0826C9.83567 11.3757 10.0003 11.7731 10.0003 12.1875V15.625C10.0003 15.9702 9.72047 16.25 9.37529 16.25H4.37529C4.03012 16.25 3.75029 15.9702 3.75029 15.625V12.1875C3.75029 11.7731 3.91491 11.3757 4.20794 11.0826Z" fill="#979DA7"/>
</svg>
